<svg xmlns="http://www.w3.org/2000/svg" xmlns:xlink="http://www.w3.org/1999/xlink" width="500" zoomAndPan="magnify" viewBox="0 0 375 374.999991" height="500" preserveAspectRatio="xMidYMid meet" version="1.0"><defs><clipPath id="73d1288c3a"><path d="M 0 31 L 375 31 L 375 345.28125 L 0 345.28125 Z M 0 31 " clip-rule="nonzero"/></clipPath></defs><g clip-path="url(#73d1288c3a)"><path fill="#ffffff" d="M 130.488281 345.257812 C 92.699219 345.257812 22.019531 332.058594 2.628906 309.328125 C 0.585938 306.933594 0.0195312 303.613281 1.15625 300.679688 C 2.289062 297.746094 4.9375 295.664062 8.058594 295.261719 C 13.40625 294.574219 18.328125 294.015625 23.09375 293.472656 C 37.675781 291.8125 50.273438 290.382812 65.371094 286.171875 C 73.992188 283.742188 80.242188 281.25 86.066406 278.472656 C 77.777344 277.203125 68.871094 275.082031 60.585938 271.09375 C 43.3125 262.777344 32.398438 248.171875 28.140625 227.679688 C 27.625 225.199219 28.234375 222.621094 29.800781 220.628906 C 31.371094 218.640625 33.742188 217.449219 36.273438 217.371094 L 37.746094 217.324219 C 41.503906 217.214844 46.949219 217.050781 52.539062 216.597656 C 29.085938 202.753906 9.4375 183.261719 10.8125 148.449219 C 10.914062 145.867188 12.179688 143.464844 14.25 141.917969 C 16.324219 140.371094 18.984375 139.84375 21.492188 140.476562 C 25.648438 141.53125 28.847656 142.578125 31.671875 143.5 C 31.90625 143.578125 32.140625 143.652344 32.367188 143.726562 C 13.738281 120.015625 1.804688 98.128906 22.394531 53.773438 C 23.480469 51.433594 25.566406 49.707031 28.066406 49.074219 C 30.570312 48.441406 33.226562 48.964844 35.296875 50.503906 C 44.953125 57.6875 52.449219 64.664062 59.703125 71.410156 C 71.441406 82.332031 82.527344 92.644531 101.84375 102.839844 C 121.882812 113.449219 149.515625 121.441406 174.695312 124.140625 C 171.726562 78.300781 199.433594 49.246094 225.632812 37.914062 C 240.773438 31.367188 257.554688 29.519531 272.894531 32.71875 C 288.246094 35.921875 301.722656 43.898438 312.132812 55.890625 C 323.511719 55.160156 332.089844 51.160156 341.867188 46.597656 C 345.804688 44.761719 349.875 42.863281 354.21875 41.164062 C 357.242188 39.984375 360.671875 40.609375 363.085938 42.78125 C 365.496094 44.953125 366.472656 48.296875 365.613281 51.425781 C 363.246094 60.019531 359.316406 66.699219 355.015625 72.402344 C 355.667969 72.210938 356.320312 72.023438 356.96875 71.835938 L 363.460938 69.960938 C 366.75 69.011719 370.28125 70.101562 372.457031 72.738281 C 374.632812 75.371094 375.035156 79.042969 373.484375 82.089844 C 365.265625 98.207031 355.964844 105.027344 349.171875 110.007812 C 342.386719 114.984375 339.578125 117.042969 338.839844 126.09375 C 334.199219 183.0625 313.453125 235.824219 280.421875 274.652344 C 244.003906 317.464844 194.699219 341.8125 137.839844 345.0625 C 135.566406 345.195312 133.105469 345.257812 130.488281 345.257812 Z M 33.859375 309.484375 C 61.046875 320.972656 108.660156 329.539062 136.867188 327.949219 C 253.6875 321.269531 313.894531 221.058594 321.742188 124.703125 C 323.117188 107.851562 331.203125 101.921875 339.023438 96.1875 C 340 95.472656 340.980469 94.753906 341.960938 94.003906 C 339.042969 94.839844 336.121094 95.671875 333.214844 96.496094 C 329.746094 97.476562 326.035156 96.1875 323.925781 93.269531 C 321.8125 90.351562 321.753906 86.425781 323.769531 83.441406 C 327.027344 78.636719 330.644531 74.554688 334.144531 70.609375 C 335.066406 69.570312 335.972656 68.550781 336.851562 67.539062 C 328.679688 70.734375 319.632812 73.152344 308.386719 73.15625 C 308.304688 73.15625 308.226562 73.15625 308.140625 73.15625 C 305.492188 73.144531 302.996094 71.914062 301.375 69.816406 C 285.214844 48.875 258.15625 42.53125 232.449219 53.648438 C 209.910156 63.398438 186.019531 89.804688 192.855469 132.136719 C 193.265625 134.691406 192.503906 137.296875 190.777344 139.222656 C 189.050781 141.148438 186.542969 142.199219 183.960938 142.066406 C 154.007812 140.574219 118.628906 131.128906 93.828125 117.996094 C 72.503906 106.746094 60.054688 95.164062 48.015625 83.960938 C 43.488281 79.746094 38.855469 75.441406 33.699219 71.109375 C 21.679688 103.40625 33.066406 117.445312 52.332031 141.195312 C 54.726562 144.148438 57.203125 147.207031 59.753906 150.441406 C 61.804688 153.046875 62.171875 156.605469 60.6875 159.570312 C 59.203125 162.539062 56.144531 164.382812 52.824219 164.3125 C 40.648438 164.042969 34.585938 162.445312 28.472656 160.488281 C 31.855469 184.347656 50.09375 197.507812 80.734375 211.914062 C 83.605469 213.265625 85.5 216.09375 85.648438 219.261719 C 85.800781 222.429688 84.1875 225.425781 81.457031 227.042969 C 73.429688 231.800781 60.640625 233.394531 47.855469 234.078125 C 57.066406 257.140625 78.652344 261.011719 103.628906 263.171875 C 108.753906 263.613281 113.175781 263.996094 117.011719 264.75 C 120.648438 265.464844 123.410156 268.429688 123.871094 272.101562 C 124.328125 275.773438 122.375 279.328125 119.027344 280.910156 C 113.664062 283.445312 109.199219 285.8125 104.882812 288.101562 C 95.039062 293.316406 85.742188 298.246094 70.003906 302.679688 C 56.800781 306.359375 45.667969 308.054688 33.859375 309.484375 Z M 33.859375 309.484375 " fill-opacity="1" fill-rule="nonzero"/></g></svg>