<svg xmlns="http://www.w3.org/2000/svg" xmlns:xlink="http://www.w3.org/1999/xlink" width="500" zoomAndPan="magnify" viewBox="0 0 375 374.999991" height="500" preserveAspectRatio="xMidYMid meet" version="1.0"><defs><clipPath id="04d0d6d1f4"><path d="M 86 277 L 292 277 L 292 348.972656 L 86 348.972656 Z M 86 277 " clip-rule="nonzero"/></clipPath><clipPath id="29a81653af"><path d="M 130 301.144531 L 248 301.144531 L 248 348.972656 L 130 348.972656 Z M 130 301.144531 " clip-rule="nonzero"/></clipPath><clipPath id="bdc16b37a0"><path d="M 216.273438 311.960938 C 216.972656 309.703125 217.085938 306.222656 210.101562 307.800781 C 210.101562 307.800781 191.015625 310.519531 190.105469 332.714844 L 189.671875 375.242188 L 185.085938 375.242188 L 184.652344 332.714844 C 183.742188 310.519531 164.660156 307.800781 164.660156 307.800781 C 157.695312 306.222656 157.785156 309.699219 158.484375 311.957031 C 151.636719 300.335938 133.304688 301.839844 133.304688 301.839844 C 126.941406 304.101562 132.851562 308.175781 132.851562 308.175781 C 142.84375 311.796875 143.757812 322.671875 143.757812 322.671875 L 143.757812 353.394531 L 144.816406 377.144531 C 147.085938 387.722656 152.6875 393.976562 158.179688 397.65625 L 216.691406 397.589844 C 223.769531 392.800781 231.007812 383.726562 231.007812 366.59375 L 231.007812 322.671875 C 231.007812 322.671875 231.914062 311.796875 241.914062 308.175781 C 251.917969 304.554688 247.820312 304.097656 241.457031 301.839844 C 241.457031 301.839844 240.683594 301.777344 239.394531 301.773438 C 234.40625 301.773438 221.71875 302.726562 216.277344 311.960938 M 161.023438 355.742188 L 161.023438 322.222656 C 161.023438 318.949219 160.445312 316.195312 159.453125 313.878906 C 166.035156 318.996094 166.476562 331.8125 166.476562 331.8125 L 166.476562 373.648438 C 159.925781 369.027344 161.023438 355.734375 161.023438 355.734375 M 208.296875 331.804688 C 208.296875 331.804688 208.734375 318.988281 215.316406 313.875 C 214.328125 316.1875 213.746094 318.941406 213.746094 322.214844 L 213.746094 355.738281 C 213.746094 355.738281 214.84375 368.089844 208.296875 373.179688 Z M 208.296875 331.804688 " clip-rule="nonzero"/></clipPath></defs><g clip-path="url(#04d0d6d1f4)"><path fill="#a0dcf2" d="M 291.074219 313.304688 C 291.074219 333.007812 245.289062 348.980469 188.808594 348.980469 C 132.332031 348.980469 86.546875 333.007812 86.546875 313.304688 C 86.546875 293.601562 132.328125 277.621094 188.808594 277.621094 C 245.289062 277.621094 291.074219 293.621094 291.074219 313.304688 " fill-opacity="1" fill-rule="nonzero"/></g><g clip-path="url(#29a81653af)"><g clip-path="url(#bdc16b37a0)"><path fill="#82bde7" d="M 291.074219 313.304688 C 291.074219 333.007812 245.289062 348.980469 188.808594 348.980469 C 132.332031 348.980469 86.546875 333.007812 86.546875 313.304688 C 86.546875 293.601562 132.328125 277.621094 188.808594 277.621094 C 245.289062 277.621094 291.074219 293.621094 291.074219 313.304688 " fill-opacity="1" fill-rule="nonzero"/></g></g><path fill="#a0dcf2" d="M 72 208.394531 L 69.046875 218.648438 C 69.046875 218.648438 68.28125 222.355469 71.78125 223.011719 C 75.4375 222.941406 75.140625 219.527344 74.882812 218.421875 L 72 208.398438 Z M 72 208.394531 " fill-opacity="1" fill-rule="nonzero"/><path fill="#292929" d="M 369.285156 165.402344 L 369.554688 164.070312 C 339.554688 158.089844 308.769531 158.03125 290.125 158.800781 C 293.183594 147.8125 294.105469 135.167969 294.105469 121.066406 C 294.105469 100.84375 286.484375 84.667969 274.109375 72.355469 C 276.273438 65.402344 279.164062 49.945312 271.226562 30.167969 C 271.226562 30.167969 257.207031 25.738281 225.566406 46.859375 C 213.164062 43.769531 199.960938 42.242188 186.742188 42.242188 C 172.195312 42.242188 157.5 44.089844 143.789062 47.839844 C 111.113281 25.613281 96.6875 30.164062 96.6875 30.164062 C 87.269531 53.65625 93.09375 71.011719 94.859375 75.328125 C 83.792969 87.238281 77.035156 102.433594 77.035156 121.066406 C 77.035156 135.132812 78.644531 147.753906 82.570312 158.722656 C 63.785156 158.039062 34.121094 158.300781 5.171875 164.066406 L 5.4375 165.398438 C 34.539062 159.597656 64.386719 159.394531 83.042969 160.101562 C 83.90625 162.367188 84.871094 164.554688 85.945312 166.703125 C 67.484375 167.296875 35.964844 169.636719 5.753906 178.136719 L 6.125 179.441406 C 36.570312 170.882812 68.367188 168.59375 86.652344 168.039062 C 97.683594 188.535156 119.429688 201.773438 158.117188 205.910156 C 152.625 209.585938 147.027344 215.839844 144.75 226.421875 C 137.269531 229.988281 113.582031 238.699219 99.367188 214.332031 C 99.367188 214.332031 91.414062 199.835938 76.183594 198.699219 C 76.183594 198.699219 61.417969 198.496094 75.164062 207.875 C 75.164062 207.875 85.050781 212.515625 91.867188 229.949219 C 91.867188 229.949219 100.765625 259.707031 143.695312 250.15625 L 143.695312 280.898438 C 143.695312 280.898438 142.785156 291.773438 132.785156 295.394531 C 122.785156 299.015625 126.878906 299.472656 133.242188 301.734375 C 133.242188 301.734375 160.960938 304 160.960938 281.351562 L 160.960938 247.832031 C 160.960938 247.832031 159.863281 234.535156 166.410156 229.917969 L 166.410156 285.023438 C 166.410156 285.023438 165.960938 298.160156 159.140625 303.144531 C 152.324219 308.128906 154.597656 311.296875 164.59375 309.035156 C 164.59375 309.035156 183.679688 306.316406 184.589844 284.117188 L 185.023438 228.402344 L 189.609375 228.402344 L 190.042969 284.117188 C 190.953125 306.3125 210.039062 309.035156 210.039062 309.035156 C 220.03125 311.296875 215.488281 303.144531 215.488281 303.144531 C 208.671875 298.164062 208.21875 285.023438 208.21875 285.023438 L 208.21875 230.441406 C 214.765625 235.503906 213.671875 247.882812 213.671875 247.882812 L 213.671875 281.402344 C 213.671875 304.050781 241.390625 301.785156 241.390625 301.785156 C 247.75 299.519531 241.847656 295.445312 241.847656 295.445312 C 231.847656 291.800781 230.9375 280.949219 230.9375 280.949219 L 230.9375 237.011719 C 230.9375 219.878906 223.699219 210.800781 216.621094 206.011719 C 257.859375 201.933594 277.679688 188.652344 286.804688 168.019531 C 304.878906 168.511719 337.402344 170.707031 368.511719 179.460938 L 368.878906 178.152344 C 337.949219 169.457031 305.640625 167.207031 287.382812 166.675781 C 288.25 164.589844 289.003906 162.421875 289.671875 160.195312 C 308.171875 159.386719 339.09375 159.414062 369.214844 165.417969 " fill-opacity="1" fill-rule="nonzero"/><path fill="#f5cdb5" d="M 253.777344 120.101562 C 262.664062 128.128906 267.863281 137.820312 267.863281 148.261719 C 267.863281 197.015625 231.402344 198.335938 186.429688 198.335938 C 141.460938 198.335938 104.988281 191.613281 104.988281 148.296875 C 104.988281 137.925781 110.117188 128.292969 118.894531 120.300781 C 133.53125 106.980469 158.3125 114.03125 186.421875 114.03125 C 214.417969 114.03125 239.105469 106.910156 253.761719 120.140625 " fill-opacity="1" fill-rule="nonzero"/><path fill="#ffffff" d="M 159.347656 150.761719 C 159.347656 164.1875 151.761719 175.074219 142.40625 175.074219 C 133.046875 175.074219 125.457031 164.191406 125.457031 150.761719 C 125.457031 137.332031 133.046875 126.453125 142.40625 126.453125 C 151.761719 126.453125 159.347656 137.332031 159.347656 150.761719 " fill-opacity="1" fill-rule="nonzero"/><path fill="#b1645a" d="M 153.910156 151.066406 C 153.910156 160.015625 148.828125 167.269531 142.613281 167.269531 C 136.398438 167.269531 131.320312 160.015625 131.320312 151.066406 C 131.320312 142.113281 136.375 134.851562 142.613281 134.851562 C 148.855469 134.851562 153.910156 142.109375 153.910156 151.066406 " fill-opacity="1" fill-rule="nonzero"/><path fill="#ffffff" d="M 250.242188 150.761719 C 250.242188 164.1875 242.65625 175.074219 233.292969 175.074219 C 223.933594 175.074219 216.351562 164.191406 216.351562 150.761719 C 216.351562 137.332031 223.941406 126.453125 233.292969 126.453125 C 242.648438 126.453125 250.242188 137.332031 250.242188 150.761719 " fill-opacity="1" fill-rule="nonzero"/><path fill="#b1645a" d="M 244.816406 151.066406 C 244.816406 160.015625 239.738281 167.269531 233.523438 167.269531 C 227.304688 167.269531 222.226562 160.015625 222.226562 151.066406 C 222.226562 142.113281 227.304688 134.851562 233.523438 134.851562 C 239.738281 134.851562 244.816406 142.109375 244.816406 151.066406 M 190.910156 172.328125 C 190.910156 174.664062 189.011719 176.554688 186.671875 176.554688 C 184.332031 176.554688 182.433594 174.664062 182.433594 172.328125 C 182.433594 169.996094 184.328125 168.105469 186.671875 168.105469 C 189.015625 168.105469 190.910156 169.996094 190.910156 172.328125 M 176.800781 183.011719 C 176.742188 182.84375 176.714844 182.667969 176.722656 182.488281 C 176.734375 182.308594 176.777344 182.136719 176.855469 181.972656 C 176.933594 181.808594 177.039062 181.667969 177.175781 181.546875 C 177.308594 181.425781 177.460938 181.335938 177.632812 181.277344 C 177.800781 181.214844 177.976562 181.191406 178.160156 181.199219 C 178.339844 181.210938 178.511719 181.253906 178.675781 181.332031 C 178.835938 181.410156 178.980469 181.515625 179.101562 181.648438 C 179.222656 181.785156 179.3125 181.9375 179.371094 182.105469 C 180.460938 185.175781 183.378906 187.234375 186.636719 187.234375 C 189.894531 187.234375 192.8125 185.175781 193.90625 182.105469 C 193.964844 181.9375 194.058594 181.785156 194.179688 181.652344 C 194.296875 181.515625 194.441406 181.410156 194.601562 181.335938 C 194.765625 181.257812 194.9375 181.214844 195.117188 181.203125 C 195.296875 181.195312 195.472656 181.21875 195.644531 181.28125 C 195.816406 181.339844 195.964844 181.429688 196.101562 181.550781 C 196.234375 181.671875 196.339844 181.8125 196.417969 181.972656 C 196.496094 182.136719 196.539062 182.308594 196.550781 182.488281 C 196.558594 182.667969 196.535156 182.84375 196.472656 183.011719 C 196.109375 184.019531 195.597656 184.949219 194.945312 185.800781 C 194.292969 186.648438 193.523438 187.382812 192.644531 187.996094 C 191.765625 188.613281 190.8125 189.082031 189.789062 189.40625 C 188.761719 189.726562 187.710938 189.886719 186.636719 189.886719 C 185.5625 189.886719 184.511719 189.726562 183.488281 189.40625 C 182.464844 189.082031 181.511719 188.613281 180.628906 187.996094 C 179.75 187.382812 178.984375 186.648438 178.332031 185.800781 C 177.675781 184.949219 177.167969 184.019531 176.800781 183.011719 " fill-opacity="1" fill-rule="nonzero"/><path fill="#c5e6da" d="M 82.847656 202.363281 C 82.847656 203.488281 81.523438 204.398438 79.890625 204.398438 C 78.261719 204.398438 76.9375 203.488281 76.9375 202.363281 C 76.9375 201.234375 78.257812 200.320312 79.890625 200.320312 C 81.527344 200.320312 82.847656 201.230469 82.847656 202.363281 M 91.03125 206.886719 C 91.03125 208.015625 89.707031 208.929688 88.074219 208.929688 C 86.445312 208.929688 85.121094 208.019531 85.121094 206.886719 C 85.121094 205.757812 86.441406 204.851562 88.074219 204.851562 C 89.707031 204.851562 91.03125 205.761719 91.03125 206.886719 M 96.03125 212.761719 C 96.03125 213.882812 94.710938 214.796875 93.078125 214.796875 C 91.441406 214.796875 90.125 213.886719 90.125 212.761719 C 90.125 211.632812 91.445312 210.71875 93.078125 210.71875 C 94.707031 210.71875 96.03125 211.628906 96.03125 212.761719 M 100.574219 219.558594 C 100.574219 220.6875 99.253906 221.601562 97.621094 221.601562 C 95.988281 221.601562 94.664062 220.6875 94.664062 219.558594 C 94.664062 218.429688 95.984375 217.515625 97.621094 217.515625 C 99.257812 217.515625 100.574219 218.429688 100.574219 219.558594 M 105.574219 225.921875 C 105.574219 227.046875 104.253906 227.960938 102.621094 227.960938 C 100.988281 227.960938 99.664062 227.050781 99.664062 225.921875 C 99.664062 224.796875 100.988281 223.882812 102.621094 223.882812 C 104.25 223.882812 105.574219 224.792969 105.574219 225.921875 M 112.394531 231.355469 C 112.394531 232.484375 111.074219 233.398438 109.4375 233.398438 C 107.800781 233.398438 106.484375 232.488281 106.484375 231.355469 C 106.484375 230.226562 107.808594 229.320312 109.4375 229.320312 C 111.070312 229.320312 112.394531 230.230469 112.394531 231.355469 " fill-opacity="1" fill-rule="nonzero"/><path fill="#c5e6da" d="M 121.9375 234.972656 C 121.9375 236.097656 120.617188 237.011719 118.984375 237.011719 C 117.351562 237.011719 116.027344 236.097656 116.027344 234.972656 C 116.027344 233.847656 117.347656 232.933594 118.984375 232.933594 C 120.617188 232.933594 121.9375 233.84375 121.9375 234.972656 " fill-opacity="1" fill-rule="nonzero"/><path fill="#c5e6da" d="M 131.4375 234.972656 C 131.4375 236.097656 130.117188 237.011719 128.484375 237.011719 C 126.847656 237.011719 125.527344 236.097656 125.527344 234.972656 C 125.527344 233.847656 126.847656 232.933594 128.484375 232.933594 C 130.117188 232.933594 131.4375 233.84375 131.4375 234.972656 " fill-opacity="1" fill-rule="nonzero"/><path fill="#c5e6da" d="M 141.078125 233.394531 C 141.078125 234.523438 139.757812 235.4375 138.125 235.4375 C 136.492188 235.4375 135.167969 234.527344 135.167969 233.394531 C 135.167969 232.265625 136.488281 231.355469 138.125 231.355469 C 139.757812 231.355469 141.078125 232.265625 141.078125 233.394531 " fill-opacity="1" fill-rule="nonzero"/></svg>