<svg xmlns="http://www.w3.org/2000/svg" xmlns:xlink="http://www.w3.org/1999/xlink" width="500" zoomAndPan="magnify" viewBox="0 0 375 374.999991" height="500" preserveAspectRatio="xMidYMid meet" version="1.0"><defs><clipPath id="9f599dd443"><path d="M 148 187 L 351.9375 187 L 351.9375 251 L 148 251 Z M 148 187 " clip-rule="nonzero"/></clipPath><clipPath id="7fc3920f3f"><path d="M 23.4375 0 L 282 0 L 282 375 L 23.4375 375 Z M 23.4375 0 " clip-rule="nonzero"/></clipPath></defs><g clip-path="url(#9f599dd443)"><path fill="#ffffff" d="M 322.214844 250.109375 L 178.503906 250.109375 C 162.128906 250.109375 148.800781 236.09375 148.800781 218.859375 C 148.800781 201.625 162.144531 187.609375 178.503906 187.609375 L 322.214844 187.609375 C 338.609375 187.609375 351.9375 201.625 351.9375 218.859375 C 351.9375 236.09375 338.59375 250.109375 322.214844 250.109375 Z M 178.503906 211.046875 C 175.109375 211.046875 172.261719 214.625 172.261719 218.859375 C 172.261719 223.09375 175.125 226.671875 178.503906 226.671875 L 322.214844 226.671875 C 325.609375 226.671875 328.472656 223.09375 328.472656 218.859375 C 328.472656 214.625 325.59375 211.046875 322.214844 211.046875 Z M 178.503906 211.046875 " fill-opacity="1" fill-rule="nonzero"/></g><g clip-path="url(#7fc3920f3f)"><path fill="#ffffff" d="M 172.640625 375 C 147.28125 375 125.539062 366.40625 109.738281 350.171875 L 47.964844 286.265625 C 32.152344 269.96875 23.4375 246.921875 23.4375 221.359375 C 23.4375 196.203125 32.152344 173.359375 47.964844 157.03125 L 191.472656 9.0625 C 197.136719 3.21875 204.769531 0 212.917969 0 C 212.917969 0 212.917969 0 212.933594 0 C 221.382812 0 229.34375 3.40625 235.367188 9.59375 C 247.347656 21.96875 247.566406 41.796875 235.867188 53.78125 L 213.292969 77.390625 C 219.738281 80.9375 226.558594 85.9375 234.789062 92.96875 L 271.722656 123.640625 C 284.296875 136.515625 284.046875 156.34375 272.097656 168.671875 C 266.058594 174.875 258.097656 178.28125 249.648438 178.28125 C 249.632812 178.28125 249.632812 178.28125 249.617188 178.28125 C 241.46875 178.28125 233.863281 175.046875 228.234375 169.203125 L 191.050781 139.890625 C 180.601562 132.125 178.800781 131.546875 172.4375 131.546875 C 165.835938 131.546875 159.875 134.03125 154.226562 139.140625 L 93.4375 202.71875 C 89.027344 207.265625 86.714844 213.6875 86.714844 221.328125 C 86.714844 229.109375 89.136719 236.09375 93.390625 240.484375 L 154.976562 304.40625 C 158.90625 308.46875 164.785156 310.53125 172.4375 310.53125 C 180.101562 310.53125 185.984375 308.46875 189.894531 304.40625 L 228.390625 266.0625 C 233.882812 260.390625 241.46875 257.171875 249.617188 257.15625 C 249.617188 257.15625 249.632812 257.15625 249.648438 257.15625 C 258.082031 257.15625 266.058594 260.578125 272.082031 266.78125 C 284.046875 279.125 284.28125 298.9375 272.613281 310.921875 L 235.617188 349.5 C 219.628906 365.96875 197.277344 375 172.640625 375 Z M 212.917969 23.4375 C 211.683594 23.4375 209.882812 23.765625 208.320312 25.375 L 64.828125 173.328125 C 53.269531 185.25 46.902344 202.3125 46.902344 221.359375 C 46.902344 240.796875 53.269531 258.0625 64.828125 269.953125 C 64.84375 269.96875 64.84375 269.96875 64.84375 269.984375 L 126.601562 333.875 C 137.863281 345.4375 153.773438 351.5625 172.640625 351.5625 C 191.144531 351.5625 207.085938 345.234375 218.722656 333.234375 L 255.71875 294.65625 C 258.660156 291.640625 258.410156 286.359375 255.21875 283.078125 C 253.652344 281.46875 251.683594 280.59375 249.648438 280.59375 C 248.429688 280.59375 246.644531 280.921875 245.113281 282.5 L 206.632812 320.84375 C 198.402344 329.375 186.53125 333.96875 172.4375 333.96875 C 158.386719 333.96875 146.5 329.375 138.101562 320.6875 L 76.515625 256.765625 C 67.972656 247.9375 63.25 235.34375 63.25 221.328125 C 63.25 207.671875 67.972656 195.28125 76.53125 186.46875 L 137.863281 122.34375 C 148.347656 112.828125 160.09375 108.09375 172.4375 108.09375 C 186.171875 108.09375 193.007812 112.125 205.347656 121.296875 L 243.953125 151.875 C 246.644531 154.5 248.414062 154.828125 249.648438 154.828125 C 251.699219 154.828125 253.683594 153.9375 255.234375 152.34375 C 258.394531 149.0625 258.660156 143.765625 255.765625 140.796875 L 219.613281 110.875 C 203.566406 97.109375 196.558594 94.9375 190.769531 93.90625 C 186.53125 93.125 182.792969 90.046875 181.460938 85.9375 C 180.117188 81.828125 180.898438 77.28125 183.886719 74.171875 L 218.941406 37.5 C 221.898438 34.453125 221.648438 29.171875 218.472656 25.890625 C 216.972656 24.328125 214.984375 23.4375 212.917969 23.4375 Z M 212.917969 23.4375 " fill-opacity="1" fill-rule="nonzero"/></g></svg>